<svg xmlns="http://www.w3.org/2000/svg" viewBox="0 0 56.13 85">
  <defs>
    <style>
      .cls-1 {
        fill: #fff;
      }
    </style>
  </defs>
  <title>8logo</title>
  <g id="Layer_2" data-name="Layer 2">
    <g id="Layer_1-2" data-name="Layer 1">
      <path class="cls-1" d="M6.88,79.51a23.82,23.82,0,0,0,8.53,4.09,50.71,50.71,0,0,0,24.29-.16,24.78,24.78,0,0,0,9-4.57,19.31,19.31,0,0,0,5.53-7.33h0a25.2,25.2,0,0,0,1.85-10,19.06,19.06,0,0,0-1.07-6.48A20.75,20.75,0,0,0,52,49.47a27.4,27.4,0,0,0-4.88-4.91,49.2,49.2,0,0,0-6.69-4.32,34,34,0,0,0,5.7-4.1,26.08,26.08,0,0,0,4.21-4.68A22.19,22.19,0,0,0,53,26.09a18.14,18.14,0,0,0,1-5.86A22.58,22.58,0,0,0,52.46,12a16.33,16.33,0,0,0-4.4-6.39,20.7,20.7,0,0,0-7.7-4.13A38.12,38.12,0,0,0,29.11,0,38.76,38.76,0,0,0,17.38,1.59,22.84,22.84,0,0,0,9,6.14,19.06,19.06,0,0,0,4,13a23.09,23.09,0,0,0-1.69,9,21,21,0,0,0,.92,6.35,18.47,18.47,0,0,0,2.7,5.37,24.41,24.41,0,0,0,4.3,4.52,40,40,0,0,0,5.64,3.84A49.68,49.68,0,0,0,9,46.47a26.87,26.87,0,0,0-5,5,19.54,19.54,0,0,0-3,5.72,20.94,20.94,0,0,0-1,6.58,22.77,22.77,0,0,0,1.72,9.12A16.89,16.89,0,0,0,6.88,79.51ZM20.34,14.6A10.63,10.63,0,0,1,28,12.15a14.75,14.75,0,0,1,4.57.63,8.59,8.59,0,0,1,3.25,1.88,7.33,7.33,0,0,1,1.89,2.95,12.24,12.24,0,0,1,.62,4,11,11,0,0,1-2.42,6.92A25.33,25.33,0,0,1,29,34.39q-2.93-1.64-5.09-3.11a18.58,18.58,0,0,1-3.49-2.93,10.42,10.42,0,0,1-2-3.23,10.58,10.58,0,0,1-.65-3.75A9,9,0,0,1,20.34,14.6Zm-4.49,48a12.08,12.08,0,0,1,.7-4.16,12.87,12.87,0,0,1,2.11-3.68,19.22,19.22,0,0,1,3.56-3.34,47.93,47.93,0,0,1,5-3.18,64.15,64.15,0,0,1,5.7,3.24A22.33,22.33,0,0,1,37,54.78l-.1,0a10.91,10.91,0,0,1,3.17,7.95,9.4,9.4,0,0,1-2.93,7.33q-2.84,2.67-9,2.67t-9.24-2.61A9.32,9.32,0,0,1,15.85,62.59Z"/>
    </g>
  </g>
</svg>
