<?xml version="1.0" encoding="utf-8"?>
<!-- Generator: Adobe Illustrator 15.0.0, SVG Export Plug-In . SVG Version: 6.00 Build 0)  -->
<!DOCTYPE svg PUBLIC "-//W3C//DTD SVG 1.1//EN" "http://www.w3.org/Graphics/SVG/1.1/DTD/svg11.dtd">
<svg version="1.1" id="Layer_1" xmlns="http://www.w3.org/2000/svg" xmlns:xlink="http://www.w3.org/1999/xlink" x="0px" y="0px"
	 width="61.66px" height="59.915px" viewBox="0 0 61.66 59.915" enable-background="new 0 0 61.66 59.915" xml:space="preserve">
<g>
	<rect fill="#FFFFFF" width="61.66" height="9.889"/>
	<path fill="#FFFFFF" d="M0,11.925v47.99h61.66v-47.99H0z M11.74,53.701H6.212v-5.528h5.528V53.701z M14.357,42.193H3.595V31.432
		h10.762V42.193z M18.387,16.515h10.762v10.762H18.387V16.515z M29.273,42.193H18.512V31.432h10.762V42.193z M33.054,16.515h10.762
		v10.762H33.054V16.515z M43.94,42.193H33.179V31.432H43.94V42.193z M56.956,40.784h-7.944V32.84h7.944V40.784z M58.232,27.276
		H47.471V16.515h10.762V27.276z"/>
</g>
</svg>
