<svg xmlns="http://www.w3.org/2000/svg" viewBox="0 0 49.93 85">
  <defs>
    <style>
      .cls-1 {
        fill: #fff;
      }

      .cls-2 {
        fill: none;
        stroke: #fff;
        stroke-miterlimit: 10;
        stroke-width: 3px;
      }
    </style>
  </defs>
  <title>thermometer</title>
  <g id="Layer_2" data-name="Layer 2">
    <g id="Layer_1-2" data-name="Layer 1">
      <path class="cls-1" d="M12.86,3a5.69,5.69,0,0,1,5.68,5.68v43l-2,2-.88.88v9.78l1.37.89a9.11,9.11,0,1,1-8.82-.57l1.71-.81V54.45l-.88-.88L7.17,51.69v-43A5.69,5.69,0,0,1,12.86,3m0-3A8.68,8.68,0,0,0,4.17,8.68V52.94l2.76,2.76V62a12.1,12.1,0,1,0,11.73.76V55.82l2.88-2.88V8.68A8.68,8.68,0,0,0,12.86,0Z"/>
      <circle class="cls-2" cx="38.5" cy="13.95" r="9.93"/>
    </g>
  </g>
</svg>
