<svg xmlns="http://www.w3.org/2000/svg" viewBox="0 0 85 85">
  <defs>
    <style>
      .cls-1 {
        fill: #fff;
      }
    </style>
  </defs>
  <title>week</title>
  <g id="Layer_2" data-name="Layer 2">
    <g id="Layer_1-2" data-name="Layer 1">
      <path class="cls-1" d="M82.29,0c-1.13,3.94-3.73,6.69-6.77,6.69S69.88,3.94,68.75,0h-3.2c-1.13,3.94-3.73,6.69-6.77,6.69S53.15,3.94,52,0H49.27c-1.13,3.94-3.73,6.69-6.77,6.69S36.86,3.94,35.73,0H32.42c-1.13,3.94-3.73,6.69-6.77,6.69S20,3.94,18.89,0h-3c-1.13,3.94-3.73,6.69-6.77,6.69S3.51,3.94,2.38,0H0V85H85V0ZM57.56,28.78s0,6.25-7.81,17.4c-5.58,10-6.47,21.64-6.47,21.64h-8.7s-1.34-13.16,6.25-22.76c8-14.5,6.47-14.95,6.47-14.95H28.56v-8h29Z"/>
    </g>
  </g>
</svg>
