<?xml version="1.0" encoding="utf-8"?>
<!-- Generator: Adobe Illustrator 17.1.0, SVG Export Plug-In . SVG Version: 6.00 Build 0)  -->
<!DOCTYPE svg PUBLIC "-//W3C//DTD SVG 1.1//EN" "http://www.w3.org/Graphics/SVG/1.1/DTD/svg11.dtd">
<svg version="1.1" xmlns="http://www.w3.org/2000/svg" xmlns:xlink="http://www.w3.org/1999/xlink" x="0px" y="0px"
	 viewBox="0 0 200 200" enable-background="new 0 0 200 200" xml:space="preserve">
<g id="sun">
</g>
<g id="clear-night">
</g>
<g id="mostly-sunny">
</g>
<g id="mostly-clear-night">
</g>
<g id="fog">
</g>
<g id="wind">
</g>
<g id="cloudy">
</g>
<g id="partly-cloudy">
</g>
<g id="partly-cloudy-night">
</g>
<g id="mostly-cloudy">
</g>
<g id="mostly-cloudy-night">
</g>
<g id="default">
</g>
<g id="light-rain">
</g>
<g id="rain">
</g>
<g id="heavy-rain">
</g>
<g id="scattered-showers-night">
</g>
<g id="isolated-t-storms">
</g>
<g id="scattered-t-storms">
</g>
<g id="scattered-t-storms-night">
</g>
<g id="strong-t-storms">
</g>
<g id="flurries">
	<path fill="#D3D3D3" d="M126.2,156.5c-0.1,0-0.2,0-0.4,0.1l-11,2.9l-9.7-5.6l9.7-5.6l11.1,3c0.7,0.2,1.4-0.3,1.6-0.9
		c0.2-0.6-0.1-1.2-0.6-1.5c0,0,0,0-0.1,0l-6.8-3.9l6.2-4.7l0,0c0.5-0.4,0.6-1,0.4-1.5c-0.2-0.5-0.7-0.8-1.2-0.8
		c-0.2,0-0.3,0.1-0.5,0.1l-7.2,3v-7.8c0.1-0.6-0.4-1.2-0.9-1.4c-0.7-0.2-1.4,0.2-1.6,0.9l-2.9,11l-9.7,5.6v-11.2l8.1-8.1
		c0.3-0.3,0.4-0.6,0.4-0.9c0-0.4-0.2-0.7-0.4-0.9c-0.4-0.4-1.1-0.5-1.6-0.2c0,0,0,0-0.1,0l-6.8,3.9l-1-7.8c-0.1-0.6-0.6-1.1-1.3-1.1
		c-0.1,0-0.2,0-0.2,0c-0.6,0.1-1,0.5-1.1,1.1c0,0,0,0,0,0.1l-1,7.7l-6.8-3.9c0,0,0,0-0.1,0c-0.5-0.3-1.2-0.2-1.6,0.2
		c-0.5,0.5-0.5,1.3,0.1,1.8l8.1,8.1v11.2l-9.7-5.6l-3-11.1c-0.2-0.7-0.9-1.1-1.6-0.9c-0.6,0.2-0.9,0.7-0.9,1.3v0.1v7.8l-7.2-3
		c-0.6-0.3-1.4,0.1-1.7,0.7c-0.2,0.5-0.1,1.2,0.4,1.5c0,0,0,0,0.1,0l6.2,4.7l-6.8,3.9c0,0,0,0-0.1,0c-0.5,0.3-0.8,0.9-0.6,1.5
		c0.2,0.6,0.7,0.9,1.3,0.9c0.1,0,0.2,0,0.4-0.1l11-2.9l9.7,5.6l-9.5,5.6l-11.1-3c-0.7-0.2-1.4,0.3-1.6,0.9c-0.2,0.6,0.1,1.2,0.6,1.5
		c0,0,0,0,0.1,0l6.8,3.9l-6.2,4.7c0,0,0,0-0.1,0c-0.5,0.4-0.6,1-0.4,1.5c0.2,0.5,0.7,0.8,1.2,0.8c0.2,0,0.3-0.1,0.5-0.1l7.2-3v7.8
		l0,0c0,0.6,0.4,1.1,0.9,1.3c0.7,0.2,1.4-0.2,1.6-0.9l2.9-11l9.7-5.6v11.2l-8.1,8.1c-0.3,0.3-0.4,0.6-0.4,0.9c0,0.3,0.2,0.7,0.4,0.9
		c0.4,0.4,1.1,0.5,1.6,0.2l0,0l6.8-3.9l1,7.8c0.1,0.6,0.6,1.1,1.3,1.1c0.1,0,0.2,0,0.2,0c0.6-0.1,1-0.5,1.1-1.1c0,0,0,0,0-0.1l1-7.7
		l6.8,3.9h0.1c0.5,0.3,1.2,0.2,1.6-0.2c0.5-0.5,0.5-1.3-0.1-1.9l-8.1-8.1v-11.2l9.7,5.6l3,11.1c0.2,0.7,0.9,1.1,1.6,0.9
		c0.6-0.2,0.9-0.7,0.9-1.3l0,0v-7.8l7.3,3c0.2,0.1,0.3,0.1,0.5,0.1c0.5,0,1-0.3,1.2-0.8c0.2-0.5,0.1-1.2-0.4-1.5c0,0,0,0-0.1,0
		l-6.2-4.7l6.8-3.9l0,0c0.5-0.3,0.8-0.9,0.6-1.5C127.3,156.9,126.8,156.5,126.2,156.5z M100.1,183.9L100.1,183.9L100.1,183.9
		L100.1,183.9z"/>
	<g>
		<g>
			<path fill="#D3D3D3" d="M197.9,67.2c-4.7-17.5-22.7-28-40.2-23.4c0,0-1.3,0.3-3.5,0.9c-5.6-20.8-24.6-36.2-47.2-36.2
				c-24.5,0-44.8,18.1-48.3,41.6c-0.8-0.2-1.3-0.3-1.3-0.3c-14.8-3.8-30,5-33.9,19.8c-0.9,3.5-1.1,7-0.8,10.4c-7.4,2-12,3.2-12,3.2
				c-7,1.9-11.1,9-9.2,16c1.6,6.1,7.3,10,13.4,9.7h150.3c0,0,6.2-0.3,9.4-1.1C192.1,102.9,202.6,84.8,197.9,67.2z"/>
		</g>
	</g>
</g>
<g id="snow">
</g>
<g id="heavy-snow">
</g>
<g id="blowing-snow">
</g>
<g id="scattered-snow">
</g>
<g id="scattered-snow-night">
</g>
<g id="freezing-drizzle">
</g>
<g id="freezing-rain">
</g>
<g id="wintry-mix">
</g>
<g id="sleet">
</g>
<g id="tornado">
</g>
<g id="hurricane">
</g>
</svg>
