<?xml version="1.0" encoding="utf-8"?>
<!-- Generator: Adobe Illustrator 17.1.0, SVG Export Plug-In . SVG Version: 6.00 Build 0)  -->
<!DOCTYPE svg PUBLIC "-//W3C//DTD SVG 1.1//EN" "http://www.w3.org/Graphics/SVG/1.1/DTD/svg11.dtd">
<svg version="1.1" xmlns="http://www.w3.org/2000/svg" xmlns:xlink="http://www.w3.org/1999/xlink" x="0px" y="0px"
	 viewBox="0 0 200 200" enable-background="new 0 0 200 200" xml:space="preserve">
<g id="sun">
</g>
<g id="clear-night">
</g>
<g id="mostly-sunny">
</g>
<g id="mostly-clear-night">
</g>
<g id="fog">
</g>
<g id="wind">
</g>
<g id="cloudy">
</g>
<g id="partly-cloudy">
</g>
<g id="partly-cloudy-night">
</g>
<g id="mostly-cloudy">
</g>
<g id="mostly-cloudy-night">
</g>
<g id="default">
</g>
<g id="light-rain">
</g>
<g id="rain">
</g>
<g id="heavy-rain">
</g>
<g id="scattered-showers-night">
</g>
<g id="isolated-t-storms">
</g>
<g id="scattered-t-storms">
</g>
<g id="scattered-t-storms-night">
</g>
<g id="strong-t-storms">
</g>
<g id="flurries">
</g>
<g id="snow">
</g>
<g id="heavy-snow">
</g>
<g id="blowing-snow">
</g>
<g id="scattered-snow">
</g>
<g id="scattered-snow-night">
	<path fill="#D3D3D3" d="M77.1,141.4c-0.1,0-0.1,0-0.2,0l-6,1.6l-5.3-3.1l5.3-3l6,1.6c0.4,0.1,0.8-0.1,0.9-0.5
		c0.1-0.3-0.1-0.6-0.3-0.8c0,0,0,0,0,0l-3.7-2.1l3.4-2.6l0,0c0.3-0.2,0.3-0.5,0.2-0.8c-0.1-0.3-0.4-0.4-0.7-0.4
		c-0.1,0-0.2,0-0.3,0.1l-3.9,1.6v-4.2c0-0.3-0.2-0.7-0.5-0.7c-0.4-0.1-0.8,0.1-0.9,0.5l-1.6,6l-5.3,3.1v-6.1l4.4-4.4
		c0.1-0.1,0.2-0.3,0.2-0.5c0-0.2-0.1-0.4-0.2-0.5c-0.2-0.2-0.6-0.3-0.9-0.1c0,0,0,0,0,0l-3.7,2.1l-0.6-4.3c-0.1-0.3-0.3-0.6-0.7-0.6
		c0,0-0.1,0-0.1,0c-0.3,0-0.6,0.3-0.6,0.6c0,0,0,0,0,0l-0.5,4.2l-3.7-2.1c0,0,0,0,0,0c-0.3-0.1-0.6-0.1-0.9,0.1
		c-0.3,0.3-0.3,0.7,0,1l4.4,4.4v6.1l-5.3-3.1l-1.6-6c-0.1-0.4-0.5-0.6-0.9-0.5c-0.3,0.1-0.5,0.4-0.5,0.7v0v4.3l-3.9-1.6
		c-0.3-0.1-0.8,0-0.9,0.4c-0.1,0.3,0,0.6,0.2,0.8c0,0,0,0,0,0l3.4,2.6l-3.7,2.1c0,0,0,0,0,0c-0.3,0.2-0.4,0.5-0.3,0.8
		c0.1,0.3,0.4,0.5,0.7,0.5c0.1,0,0.1,0,0.2,0l6-1.6l5.3,3l-5.2,3.1l-6-1.6c-0.4-0.1-0.8,0.1-0.9,0.5c-0.1,0.3,0.1,0.6,0.3,0.8
		c0,0,0,0,0,0l3.7,2.1l-3.4,2.6c0,0,0,0,0,0c-0.3,0.2-0.3,0.5-0.2,0.8c0.1,0.3,0.4,0.4,0.7,0.4c0.1,0,0.2,0,0.3-0.1l3.9-1.6v4.3l0,0
		c0,0.3,0.2,0.6,0.5,0.7c0.4,0.1,0.8-0.1,0.9-0.5l1.6-6l5.3-3v6.1l-4.4,4.4c-0.1,0.1-0.2,0.3-0.2,0.5c0,0.2,0.1,0.4,0.2,0.5
		c0.2,0.2,0.6,0.3,0.9,0.1l0,0l3.7-2.1l0.6,4.3c0.1,0.3,0.3,0.6,0.7,0.6c0,0,0.1,0,0.1,0c0.3-0.1,0.6-0.3,0.6-0.6c0,0,0,0,0,0
		l0.5-4.2l3.7,2.1h0c0.3,0.1,0.6,0.1,0.9-0.1c0.3-0.3,0.3-0.7,0-1l-4.4-4.4v-6.1l5.3,3l1.6,6c0.1,0.4,0.5,0.6,0.9,0.5
		c0.3-0.1,0.5-0.4,0.5-0.7l0,0V147l4,1.6c0.1,0,0.2,0.1,0.3,0.1c0.3,0,0.5-0.2,0.7-0.4c0.1-0.3,0-0.6-0.2-0.8c0,0,0,0,0,0l-3.4-2.6
		l3.7-2.1l0,0c0.3-0.1,0.4-0.5,0.3-0.8C77.7,141.6,77.4,141.4,77.1,141.4z M62.8,156.4L62.8,156.4L62.8,156.4L62.8,156.4z"/>
	<path fill="#D3D3D3" d="M150.9,159.5c-0.1,0-0.2,0-0.4,0.1l-11,2.9l-9.7-5.6l9.7-5.6l11.1,3c0.7,0.2,1.4-0.3,1.6-0.9
		c0.2-0.6-0.1-1.2-0.6-1.5c0,0,0,0-0.1,0l-6.8-3.9l6.2-4.7l0,0c0.5-0.4,0.6-1,0.4-1.5c-0.2-0.5-0.7-0.8-1.2-0.8
		c-0.2,0-0.3,0.1-0.5,0.1l-7.2,3v-7.8c0.1-0.6-0.4-1.2-0.9-1.4c-0.7-0.2-1.4,0.2-1.6,0.9l-2.9,11l-9.7,5.6v-11.2l8.1-8.1
		c0.3-0.3,0.4-0.6,0.4-0.9c0-0.4-0.2-0.7-0.4-0.9c-0.4-0.4-1.1-0.5-1.6-0.2c0,0,0,0-0.1,0l-6.8,3.9l-1-7.8c-0.1-0.6-0.6-1.1-1.3-1.1
		c-0.1,0-0.2,0-0.2,0c-0.6,0.1-1,0.5-1.1,1.1c0,0,0,0,0,0.1l-1,7.7l-6.8-3.9c0,0,0,0-0.1,0c-0.5-0.3-1.2-0.2-1.6,0.2
		c-0.5,0.5-0.5,1.3,0.1,1.8l8.1,8.1v11.2l-9.7-5.6l-3-11.1c-0.2-0.7-0.9-1.1-1.6-0.9c-0.6,0.2-0.9,0.7-0.9,1.3v0.1v7.8l-7.2-3
		c-0.6-0.3-1.4,0.1-1.7,0.7c-0.2,0.5-0.1,1.2,0.4,1.5c0,0,0,0,0.1,0l6.2,4.7l-6.8,3.9c0,0,0,0-0.1,0c-0.5,0.3-0.8,0.9-0.6,1.5
		c0.2,0.6,0.7,0.9,1.3,0.9c0.1,0,0.2,0,0.4-0.1l11-2.9l9.7,5.6l-9.5,5.6l-11.1-3c-0.7-0.2-1.4,0.3-1.6,0.9c-0.2,0.6,0.1,1.2,0.6,1.5
		c0,0,0,0,0.1,0l6.8,3.9l-6.2,4.7c0,0,0,0-0.1,0c-0.5,0.4-0.6,1-0.4,1.5c0.2,0.5,0.7,0.8,1.2,0.8c0.2,0,0.3-0.1,0.5-0.1l7.2-3v7.8
		l0,0c0,0.6,0.4,1.1,0.9,1.3c0.7,0.2,1.4-0.2,1.6-0.9l2.9-11l9.7-5.6v11.2l-8.1,8.1c-0.3,0.3-0.4,0.6-0.4,0.9c0,0.3,0.2,0.7,0.4,0.9
		c0.4,0.4,1.1,0.5,1.6,0.2l0,0l6.8-3.9l1,7.8c0.1,0.6,0.6,1.1,1.3,1.1c0.1,0,0.2,0,0.2,0c0.6-0.1,1-0.5,1.1-1.1c0,0,0,0,0-0.1l1-7.7
		l6.8,3.9h0.1c0.5,0.3,1.2,0.2,1.6-0.2c0.5-0.5,0.5-1.3-0.1-1.9l-8.1-8.1v-11.2l9.7,5.6l3,11.1c0.2,0.7,0.9,1.1,1.6,0.9
		c0.6-0.2,0.9-0.7,0.9-1.3l0,0v-7.8l7.3,3c0.2,0.1,0.3,0.1,0.5,0.1c0.5,0,1-0.3,1.2-0.8c0.2-0.5,0.1-1.2-0.4-1.5c0,0,0,0-0.1,0
		l-6.2-4.7l6.8-3.9l0,0c0.5-0.3,0.8-0.9,0.6-1.5C152,159.9,151.5,159.5,150.9,159.5z M124.7,186.9L124.7,186.9L124.7,186.9
		L124.7,186.9z"/>
	<g>
		<path fill="#D3D3D3" d="M186,72.2c-4.1-15.4-19.9-24.6-35.3-20.6c0,0-1.1,0.3-3.1,0.8c-4.9-18.3-21.6-31.8-41.5-31.8
			c-15.6,0-29.3,8.3-36.8,20.8c1.1,3.7,2.6,7.3,4.6,10.8c8.1,14,22.1,23,35.6,23c2.4,0,4.7-0.3,7-0.9c0.5-0.1,1-0.2,1.5-0.2
			c2.2,0,4.2,1.2,5.3,3.1c1.3,2.4,0.8,5.4-1.2,7.3c-3,2.8-6.3,5.2-9.8,7.3c-8.1,4.7-17.4,7.2-26.7,7.2c-19.1,0-36.9-10.3-46.4-26.8
			c-1.1-1.9-2-3.8-2.9-5.8c-1.6,2.3-2.9,4.9-3.7,7.8c-0.8,3.1-1,6.2-0.7,9.1c-6.5,1.8-10.5,2.8-10.5,2.8c-6.1,1.6-9.8,7.9-8.1,14
			c1.4,5.4,6.5,8.8,11.8,8.5h132.1c0,0,5.5-0.3,8.2-1C181,103.6,190.2,87.7,186,72.2z"/>
		<path fill="#DEDDDD" d="M118,80.2c-0.6,0.2-1.3,0.3-1.9,0.4c-0.2,0-0.4,0.1-0.6,0.1c-0.4,0.1-0.9,0.1-1.4,0.2
			c-0.2,0-0.4,0.1-0.7,0.1c-0.5,0.1-0.9,0.1-1.4,0.1c-0.2,0-0.4,0-0.5,0c-0.6,0-1.3,0.1-1.9,0.1c0,0,0,0,0,0c0,0-0.1,0-0.1,0
			c-0.8,0-1.6,0-2.5-0.1c-0.1,0-0.3,0-0.4,0c-0.8-0.1-1.7-0.2-2.5-0.3c-0.2,0-0.3-0.1-0.5-0.1c-0.8-0.1-1.7-0.3-2.5-0.5
			c-0.1,0-0.2,0-0.3-0.1c-0.8-0.2-1.6-0.4-2.4-0.6c-0.1,0-0.3-0.1-0.4-0.1c-0.8-0.3-1.6-0.5-2.5-0.8c-0.2-0.1-0.3-0.1-0.5-0.2
			c-0.8-0.3-1.6-0.7-2.4-1c-0.1-0.1-0.2-0.1-0.3-0.2c-0.8-0.4-1.5-0.7-2.3-1.2c-0.1-0.1-0.2-0.1-0.3-0.2c-0.8-0.4-1.6-0.9-2.4-1.4
			c-0.2-0.1-0.3-0.2-0.5-0.3c-0.8-0.5-1.5-1-2.3-1.5c-0.1-0.1-0.2-0.2-0.4-0.3c-0.7-0.5-1.4-1.1-2.2-1.7c-0.1-0.1-0.1-0.1-0.2-0.2
			c-0.7-0.6-1.5-1.2-2.2-1.9c-0.1-0.1-0.3-0.3-0.4-0.4c-0.7-0.6-1.4-1.3-2-2c-0.1-0.1-0.2-0.2-0.3-0.4c-0.7-0.7-1.3-1.4-2-2.2
			c0,0-0.1-0.1-0.1-0.1c-0.7-0.8-1.3-1.6-1.9-2.4c-0.1-0.2-0.2-0.3-0.4-0.5c-0.6-0.8-1.2-1.6-1.7-2.5c-0.1-0.2-0.2-0.3-0.3-0.5
			c-0.6-0.9-1.1-1.8-1.7-2.7c-1.2-2-2.2-4.1-3.1-6.1c-7.7-18-5.2-37.5,6-49c-3.4,1-6.7,2.5-9.9,4.3C41.5,16,33.2,40.4,40.9,61.6
			c0.9,2.6,2.1,5.1,3.5,7.6c0.5,0.9,1,1.7,1.6,2.5c0.2,0.2,0.3,0.5,0.5,0.7c0.4,0.6,0.8,1.2,1.3,1.8c0.2,0.2,0.3,0.4,0.5,0.7
			c0.6,0.8,1.2,1.5,1.8,2.2c0,0,0.1,0.1,0.1,0.1c0.6,0.7,1.2,1.3,1.9,2c0.2,0.2,0.4,0.4,0.6,0.6c0.5,0.5,1,1,1.6,1.4
			c0.2,0.2,0.4,0.3,0.6,0.5c0.7,0.6,1.4,1.2,2.2,1.8c0.1,0,0.1,0.1,0.2,0.1c0.7,0.5,1.4,1,2.1,1.5c0.2,0.1,0.5,0.3,0.7,0.4
			c0.6,0.4,1.2,0.7,1.8,1.1c0.2,0.1,0.4,0.2,0.6,0.4c0.8,0.5,1.6,0.9,2.5,1.3c0.1,0.1,0.2,0.1,0.3,0.1c0.7,0.3,1.5,0.7,2.2,1
			c0.3,0.1,0.5,0.2,0.8,0.3c0.7,0.3,1.3,0.5,2,0.7c0.2,0.1,0.4,0.2,0.7,0.2c0.9,0.3,1.8,0.5,2.6,0.8c0.1,0,0.3,0.1,0.4,0.1
			c0.8,0.2,1.5,0.4,2.3,0.5c0.3,0.1,0.5,0.1,0.8,0.2c0.7,0.1,1.4,0.2,2.1,0.3c0.2,0,0.5,0.1,0.7,0.1c0.9,0.1,1.8,0.2,2.7,0.3
			c0.2,0,0.4,0,0.5,0c0.7,0,1.5,0.1,2.3,0.1c0.3,0,0.6,0,0.9,0c0.7,0,1.4,0,2-0.1c0.2,0,0.5,0,0.7,0c0.9-0.1,1.8-0.1,2.7-0.3
			c0.2,0,0.3-0.1,0.5-0.1c0.7-0.1,1.5-0.2,2.2-0.4c0.3-0.1,0.6-0.1,0.9-0.2c0.7-0.1,1.3-0.3,2-0.5c0.3-0.1,0.5-0.1,0.8-0.2
			c0.9-0.2,1.8-0.5,2.7-0.8c0.1,0,0.2-0.1,0.3-0.1c0.8-0.3,1.6-0.6,2.3-0.9c0.3-0.1,0.5-0.2,0.8-0.3c0.6-0.3,1.3-0.6,1.9-0.9
			c0.3-0.1,0.5-0.2,0.8-0.4c0.9-0.4,1.7-0.9,2.6-1.4c1.6-0.9,3.1-1.9,4.6-3C115.3,82.5,116.7,81.4,118,80.2
			C118,80.2,118,80.2,118,80.2z"/>
	</g>
</g>
<g id="freezing-drizzle">
</g>
<g id="freezing-rain">
</g>
<g id="wintry-mix">
</g>
<g id="sleet">
</g>
<g id="tornado">
</g>
<g id="hurricane">
</g>
</svg>
