<svg xmlns="http://www.w3.org/2000/svg" viewBox="0 0 166.11 71.89"><defs><style>.cls-1{fill:#fff;}</style></defs><title>local</title><g id="Layer_2" data-name="Layer 2"><g id="Layer_2-2" data-name="Layer 2"><polygon class="cls-1" points="75.79 13.66 72.61 23.82 78.99 23.82 75.81 13.66 75.79 13.66"/><path class="cls-1" d="M120.5,26.15a12.67,12.67,0,0,0,2.38,2q1.47,1,3.47,2.12a17.28,17.28,0,0,0,4.71-4,7.5,7.5,0,0,0,1.65-4.72,8.35,8.35,0,0,0-.42-2.73A5,5,0,0,0,131,16.81a5.86,5.86,0,0,0-2.22-1.28,10.06,10.06,0,0,0-3.12-.43,7.25,7.25,0,0,0-5.23,1.67,6.14,6.14,0,0,0-1.72,4.62,7.22,7.22,0,0,0,.44,2.56A7.11,7.11,0,0,0,120.5,26.15Z"/><path class="cls-1" d="M39,15a4.63,4.63,0,0,0-1.78-1.7,5.81,5.81,0,0,0-2.78-.6,5.41,5.41,0,0,0-2.81.67,5.32,5.32,0,0,0-1.82,1.8,7.71,7.71,0,0,0-1,2.63A16.94,16.94,0,0,0,28.56,21a20.15,20.15,0,0,0,.28,3.52,7.85,7.85,0,0,0,.94,2.67,4.42,4.42,0,0,0,1.77,1.69,6,6,0,0,0,2.8.58,5.48,5.48,0,0,0,2.81-.66A5.19,5.19,0,0,0,39,26.94a7.93,7.93,0,0,0,1-2.67A17.53,17.53,0,0,0,40.25,21,19.36,19.36,0,0,0,40,17.6,7.67,7.67,0,0,0,39,15Z"/><path class="cls-1" d="M131.82,44.18A15.23,15.23,0,0,0,129,41.92a43.75,43.75,0,0,0-3.89-2.21,32.69,32.69,0,0,0-3.39,2.17,13.11,13.11,0,0,0-2.43,2.28,8.78,8.78,0,0,0-1.44,2.51,8.24,8.24,0,0,0-.48,2.84,6.36,6.36,0,0,0,2.11,5.16q2.11,1.78,6.3,1.78t6.13-1.82a6.41,6.41,0,0,0,2-5,7.44,7.44,0,0,0-2.16-5.42Z"/><path class="cls-1" d="M0,0V71.89H166.11V0ZM10.4,9.76a.54.54,0,0,1,.11-.33.79.79,0,0,1,.37-.24,3.43,3.43,0,0,1,.7-.15A9.18,9.18,0,0,1,12.69,9,9.11,9.11,0,0,1,13.81,9a3.43,3.43,0,0,1,.7.15.8.8,0,0,1,.37.24.54.54,0,0,1,.11.33V29h7.07a.48.48,0,0,1,.3.1.74.74,0,0,1,.22.33,2.64,2.64,0,0,1,.13.61,10.12,10.12,0,0,1,0,1.86,3,3,0,0,1-.13.63.81.81,0,0,1-.22.36.45.45,0,0,1-.3.11H11.76a1.37,1.37,0,0,1-1-.36,1.53,1.53,0,0,1-.39-1.17Zm16.1,45.16A12.85,12.85,0,0,1,25,59a7.37,7.37,0,0,1-2.6,2.58,7.17,7.17,0,0,1-3.65.91,7.12,7.12,0,0,1-3.59-.86,6.84,6.84,0,0,1-2.47-2.45,12,12,0,0,1-1.42-3.9A26.77,26.77,0,0,1,10.77,50a24.6,24.6,0,0,1,.51-5.21,12.38,12.38,0,0,1,1.55-4,7.51,7.51,0,0,1,2.6-2.56,7.17,7.17,0,0,1,3.66-.91,7.05,7.05,0,0,1,3.54.85,6.91,6.91,0,0,1,2.47,2.43,11.91,11.91,0,0,1,1.45,3.85A25.25,25.25,0,0,1,27,49.63,25,25,0,0,1,26.51,54.93ZM44.83,61a1.73,1.73,0,0,1-.08.57,1.12,1.12,0,0,1-.2.37.68.68,0,0,1-.28.2.82.82,0,0,1-.28.06h-.36a1.43,1.43,0,0,1-.53-.09,1.31,1.31,0,0,1-.46-.33,3.17,3.17,0,0,1-.45-.63q-.22-.4-.5-1L35.07,44.88q-.49-1.11-1-2.29t-1-2.29h0q0,1.38,0,2.82V61.75a.5.5,0,0,1,0,.21.33.33,0,0,1-.15.15,1,1,0,0,1-.27.09,2.41,2.41,0,0,1-.85,0,1,1,0,0,1-.28-.09A.33.33,0,0,1,31.4,62a.49.49,0,0,1,0-.21V38.9a1.25,1.25,0,0,1,.28-.93.81.81,0,0,1,.54-.25h.73a1.91,1.91,0,0,1,.58.08,1.1,1.1,0,0,1,.42.25,2.11,2.11,0,0,1,.37.51q.18.33.4.84l5.06,11.68q.48,1.09.91,2.1l.83,2,.8,1.92q.4.94.79,1.91h0q0-1.59,0-3.3V38.16a.49.49,0,0,1,0-.21.39.39,0,0,1,.15-.16.71.71,0,0,1,.27-.09,2.66,2.66,0,0,1,.43,0,2.58,2.58,0,0,1,.41,0,.72.72,0,0,1,.28.09.45.45,0,0,1,.15.16.43.43,0,0,1,.05.21Zm-.48-34.92a10.92,10.92,0,0,1-2.07,4,8.92,8.92,0,0,1-3.4,2.49,11.9,11.9,0,0,1-4.68.86,13.08,13.08,0,0,1-4.58-.73,7.91,7.91,0,0,1-3.26-2.22,9.71,9.71,0,0,1-2-3.8,20.25,20.25,0,0,1-.65-5.47A18.14,18.14,0,0,1,24.46,16,10.86,10.86,0,0,1,26.52,12a9,9,0,0,1,3.4-2.49,11.86,11.86,0,0,1,4.7-.87,13,13,0,0,1,4.51.72,7.9,7.9,0,0,1,3.27,2.22,9.84,9.84,0,0,1,2,3.78A19.25,19.25,0,0,1,45,20.77,18.71,18.71,0,0,1,44.35,26.09Zm6.15,4.27a10.27,10.27,0,0,1-2-3.76,17.83,17.83,0,0,1-.7-5.24A17.55,17.55,0,0,1,48.57,16a11.47,11.47,0,0,1,2.14-4A9,9,0,0,1,54,9.54a10.54,10.54,0,0,1,4.23-.83A9.65,9.65,0,0,1,60,8.88a10.58,10.58,0,0,1,1.61.43A7.83,7.83,0,0,1,63,9.93a4,4,0,0,1,.83.6,2.08,2.08,0,0,1,.32.42,1.59,1.59,0,0,1,.14.42,4.9,4.9,0,0,1,.08.61c0,.23,0,.52,0,.87s0,.68,0,.94a2.55,2.55,0,0,1-.12.63.87.87,0,0,1-.21.35.4.4,0,0,1-.28.11,1.17,1.17,0,0,1-.66-.32,10.8,10.8,0,0,0-1-.72,8.25,8.25,0,0,0-1.51-.72,6.08,6.08,0,0,0-2.09-.32,4.85,4.85,0,0,0-2.39.58A5.21,5.21,0,0,0,54.24,15a8,8,0,0,0-1.12,2.61,14.31,14.31,0,0,0-.38,3.45,14.35,14.35,0,0,0,.41,3.65,7.21,7.21,0,0,0,1.16,2.54,4.75,4.75,0,0,0,1.82,1.49,5.72,5.72,0,0,0,2.41.49,6.5,6.5,0,0,0,2.1-.3,8.55,8.55,0,0,0,1.52-.67q.63-.37,1-.67a1.26,1.26,0,0,1,.63-.29.47.47,0,0,1,.28.07.56.56,0,0,1,.17.3,3.11,3.11,0,0,1,.1.62q0,.4,0,1.06,0,.46,0,.79a4.09,4.09,0,0,1-.08.55,1.67,1.67,0,0,1-.14.4,2,2,0,0,1-.28.38,3.56,3.56,0,0,1-.74.54,8.42,8.42,0,0,1-1.34.64,11,11,0,0,1-1.81.51,11.22,11.22,0,0,1-2.2.2,11,11,0,0,1-4.17-.76A8.22,8.22,0,0,1,50.5,30.36ZM68.38,39.2a1.16,1.16,0,0,1-.09.31.51.51,0,0,1-.15.19.31.31,0,0,1-.19.07h-5.6v22a.49.49,0,0,1,0,.21.33.33,0,0,1-.15.15,1,1,0,0,1-.28.09,2.37,2.37,0,0,1-.84,0,1,1,0,0,1-.28-.09.33.33,0,0,1-.15-.15.49.49,0,0,1,0-.21v-22H55a.3.3,0,0,1-.2-.07.53.53,0,0,1-.14-.19,1.1,1.1,0,0,1-.09-.31,2.83,2.83,0,0,1,0-.43,3.16,3.16,0,0,1,0-.46,1.26,1.26,0,0,1,.09-.33.54.54,0,0,1,.14-.2.3.3,0,0,1,.2-.07H68a.31.31,0,0,1,.19.07.51.51,0,0,1,.15.2,1.33,1.33,0,0,1,.09.33,3.31,3.31,0,0,1,0,.46A3,3,0,0,1,68.38,39.2ZM84.3,61.75a.5.5,0,0,1,0,.21.33.33,0,0,1-.15.15,1,1,0,0,1-.28.09,2,2,0,0,1-.42,0,2,2,0,0,1-.43,0,1,1,0,0,1-.27-.09.33.33,0,0,1-.14-.15.49.49,0,0,1,0-.21V50.37H73.16V61.75a.5.5,0,0,1,0,.21.33.33,0,0,1-.15.15,1,1,0,0,1-.27.09,2.41,2.41,0,0,1-.85,0,1,1,0,0,1-.28-.09.33.33,0,0,1-.14-.15.49.49,0,0,1,0-.21V38.08a.49.49,0,0,1,0-.21.33.33,0,0,1,.14-.15,1.05,1.05,0,0,1,.28-.1,2.41,2.41,0,0,1,.85,0,1,1,0,0,1,.27.1.33.33,0,0,1,.15.15.5.5,0,0,1,0,.21V48.31h9.37V38.08a.49.49,0,0,1,0-.21.33.33,0,0,1,.14-.15,1.07,1.07,0,0,1,.27-.1,2.06,2.06,0,0,1,.43,0,2.09,2.09,0,0,1,.42,0,1,1,0,0,1,.28.1.33.33,0,0,1,.15.15.5.5,0,0,1,0,.21Zm1.95-28.93a1.09,1.09,0,0,1-.68.24q-.49,0-1.34,0t-1.38,0A3.23,3.23,0,0,1,82.1,33a.68.68,0,0,1-.36-.23,1.32,1.32,0,0,1-.17-.39L80,27.55H71.61l-1.42,4.67a1.54,1.54,0,0,1-.18.43.74.74,0,0,1-.36.28,2.52,2.52,0,0,1-.71.14q-.46,0-1.21,0A10.9,10.9,0,0,1,66.46,33a.92.92,0,0,1-.63-.27.75.75,0,0,1-.12-.6,6.35,6.35,0,0,1,.26-1l6.93-21.2a1.93,1.93,0,0,1,.24-.51.86.86,0,0,1,.44-.3A3.34,3.34,0,0,1,74.44,9Q75,9,75.86,9T77.5,9a4.15,4.15,0,0,1,.95.13.9.9,0,0,1,.49.3,1.86,1.86,0,0,1,.25.55l6.95,21.18a6.73,6.73,0,0,1,.26,1.05A.66.66,0,0,1,86.25,32.82ZM99.82,61.54a1.12,1.12,0,0,1-.09.32.54.54,0,0,1-.15.2.3.3,0,0,1-.19.07H90.6a.81.81,0,0,1-.54-.25,1.25,1.25,0,0,1-.28-.93v-22a1.25,1.25,0,0,1,.28-.93.81.81,0,0,1,.54-.25h8.66a.31.31,0,0,1,.19.07.49.49,0,0,1,.15.2,1.33,1.33,0,0,1,.09.33,3.16,3.16,0,0,1,0,.46,2.83,2.83,0,0,1,0,.43,1.16,1.16,0,0,1-.09.31.49.49,0,0,1-.15.19.31.31,0,0,1-.19.07h-7.7v8.59H98.2a.33.33,0,0,1,.2.07.5.5,0,0,1,.15.19,1.16,1.16,0,0,1,.09.32,3.3,3.3,0,0,1,0,.46,2.76,2.76,0,0,1,0,.42,1,1,0,0,1-.09.29.43.43,0,0,1-.15.17.37.37,0,0,1-.2.06H91.56v9.74h7.83a.31.31,0,0,1,.19.07.57.57,0,0,1,.15.19,1,1,0,0,1,.09.32,3.33,3.33,0,0,1,0,.46A3,3,0,0,1,99.82,61.54Zm1.76-29.65a3,3,0,0,1-.13.63.81.81,0,0,1-.22.36.45.45,0,0,1-.3.11H90.63a1.37,1.37,0,0,1-1-.36,1.53,1.53,0,0,1-.39-1.17V9.76a.54.54,0,0,1,.11-.33.79.79,0,0,1,.37-.24,3.43,3.43,0,0,1,.7-.15,11.06,11.06,0,0,1,2.21,0,3.43,3.43,0,0,1,.7.15.8.8,0,0,1,.37.24.54.54,0,0,1,.11.33V29h7.07a.48.48,0,0,1,.3.1.74.74,0,0,1,.22.33,2.64,2.64,0,0,1,.13.61,10.12,10.12,0,0,1,0,1.86Zm42,23.72a13.17,13.17,0,0,1-3.77,5,16.9,16.9,0,0,1-6.17,3.12,34.59,34.59,0,0,1-16.57.11,16.25,16.25,0,0,1-5.82-2.79,11.52,11.52,0,0,1-3.52-4.55,15.53,15.53,0,0,1-1.17-6.22,14.28,14.28,0,0,1,.69-4.49,13.33,13.33,0,0,1,2.05-3.9,18.33,18.33,0,0,1,3.39-3.38,33.89,33.89,0,0,1,4.67-3,27.27,27.27,0,0,1-3.85-2.62,16.65,16.65,0,0,1-2.93-3.08,12.6,12.6,0,0,1-1.84-3.66,14.35,14.35,0,0,1-.63-4.33,15.75,15.75,0,0,1,1.15-6.13A13,13,0,0,1,112.7,11a15.58,15.58,0,0,1,5.71-3.1,26.44,26.44,0,0,1,8-1.08,26,26,0,0,1,7.68,1,14.12,14.12,0,0,1,5.25,2.82,11.14,11.14,0,0,1,3,4.36,15.4,15.4,0,0,1,1,5.61,12.37,12.37,0,0,1-.65,4,15.14,15.14,0,0,1-1.82,3.66A17.79,17.79,0,0,1,138,31.46a23.17,23.17,0,0,1-3.89,2.8,33.56,33.56,0,0,1,4.56,2.95A18.69,18.69,0,0,1,142,40.56a14.15,14.15,0,0,1,2.11,3.84,13,13,0,0,1,.73,4.42A17.19,17.19,0,0,1,143.58,55.62Zm15.67,2.06a6.07,6.07,0,0,1-1.51,2.2,6.62,6.62,0,0,1-2.34,1.38,9.09,9.09,0,0,1-3,.48,9.81,9.81,0,0,1-2-.19,10.42,10.42,0,0,1-1.67-.48,7.35,7.35,0,0,1-1.27-.62,4.18,4.18,0,0,1-.76-.58,1.47,1.47,0,0,1-.35-.63,3.71,3.71,0,0,1-.11-1,3.38,3.38,0,0,1,0-.58,2.47,2.47,0,0,1,.11-.43.6.6,0,0,1,.18-.26.38.38,0,0,1,.24-.09,1.39,1.39,0,0,1,.71.35,12.39,12.39,0,0,0,1.16.77,9.83,9.83,0,0,0,1.65.77,7,7,0,0,0,4.06.1,4.16,4.16,0,0,0,1.45-.75,3.35,3.35,0,0,0,1-1.3,4.64,4.64,0,0,0,.34-1.85,3.4,3.4,0,0,0-.44-1.79,4.5,4.5,0,0,0-1.16-1.27,8.59,8.59,0,0,0-1.63-1l-1.87-.86q-1-.44-1.87-1a7.21,7.21,0,0,1-1.63-1.28A5.9,5.9,0,0,1,147.41,46,6.59,6.59,0,0,1,147,43.5a7.07,7.07,0,0,1,.4-2.33,5.87,5.87,0,0,1,1.22-2.05,6,6,0,0,1,2.11-1.46,7.7,7.7,0,0,1,3-.55,8,8,0,0,1,1.49.14,8.16,8.16,0,0,1,1.34.36,6.38,6.38,0,0,1,1,.49,4.88,4.88,0,0,1,.67.47,1.44,1.44,0,0,1,.31.34,1,1,0,0,1,.11.29,3.36,3.36,0,0,1,.06.36c0,.14,0,.31,0,.52a3.92,3.92,0,0,1,0,.54,1.92,1.92,0,0,1-.1.41.66.66,0,0,1-.16.26.34.34,0,0,1-.23.09,1,1,0,0,1-.53-.28,7.84,7.84,0,0,0-.92-.6,8.29,8.29,0,0,0-1.36-.6,5.54,5.54,0,0,0-1.83-.28,5.44,5.44,0,0,0-1.82.28,3.41,3.41,0,0,0-1.29.78,3.24,3.24,0,0,0-.76,1.18,4.23,4.23,0,0,0-.25,1.49,3.63,3.63,0,0,0,.44,1.86,4.44,4.44,0,0,0,1.17,1.31,8.79,8.79,0,0,0,1.65,1l1.88.86q1,.43,1.88.94a7.4,7.4,0,0,1,1.65,1.25,5.58,5.58,0,0,1,1.17,1.75,6.16,6.16,0,0,1,.44,2.45A7.7,7.7,0,0,1,159.26,57.68Z"/><path class="cls-1" d="M23.79,42.47a5.74,5.74,0,0,0-1.91-2.21,5.15,5.15,0,0,0-2.94-.8A5,5,0,0,0,16,40.3a6.27,6.27,0,0,0-1.94,2.25A11.06,11.06,0,0,0,13,45.86a23.33,23.33,0,0,0-.33,4A27.06,27.06,0,0,0,13,54a11.22,11.22,0,0,0,1,3.33,5.68,5.68,0,0,0,1.9,2.22,5.2,5.2,0,0,0,3,.8,5,5,0,0,0,3-.86,6.28,6.28,0,0,0,1.94-2.3,11.46,11.46,0,0,0,1.06-3.34,24,24,0,0,0,.32-4,25.19,25.19,0,0,0-.31-4.07A11.25,11.25,0,0,0,23.79,42.47Z"/></g></g></svg>