<svg xmlns="http://www.w3.org/2000/svg" viewBox="0 0 165.62 254.21"><defs><style>.cls-1{fill:#fff;opacity:0.75;}</style></defs><title>local-white-box-logo_1</title><g id="Layer_2" data-name="Layer 2"><g id="Layer_2-2" data-name="Layer 2"><polygon class="cls-1" points="71.72 108.75 68.87 117.84 74.58 117.84 71.73 108.75 71.72 108.75"/><path class="cls-1" d="M111.74,119.93a11.34,11.34,0,0,0,2.14,1.82q1.31.89,3.11,1.9a15.47,15.47,0,0,0,4.21-3.57,6.72,6.72,0,0,0,1.48-4.23,7.47,7.47,0,0,0-.37-2.44,4.5,4.5,0,0,0-1.18-1.84,5.25,5.25,0,0,0-2-1.14,9,9,0,0,0-2.79-.39,6.49,6.49,0,0,0-4.68,1.49,5.5,5.5,0,0,0-1.54,4.13,6.46,6.46,0,0,0,.39,2.29A6.36,6.36,0,0,0,111.74,119.93Z"/><path class="cls-1" d="M38.8,109.92a4.15,4.15,0,0,0-1.59-1.52,5.2,5.2,0,0,0-2.49-.54,4.84,4.84,0,0,0-2.52.6,4.76,4.76,0,0,0-1.63,1.61,6.9,6.9,0,0,0-.88,2.36,15.17,15.17,0,0,0-.26,2.85,18,18,0,0,0,.25,3.15,7,7,0,0,0,.84,2.39,4,4,0,0,0,1.59,1.51,5.38,5.38,0,0,0,2.5.52,4.9,4.9,0,0,0,2.52-.59,4.64,4.64,0,0,0,1.63-1.62,7.1,7.1,0,0,0,.88-2.39,15.69,15.69,0,0,0,.26-2.9,17.33,17.33,0,0,0-.25-3.07A6.87,6.87,0,0,0,38.8,109.92Z"/><path class="cls-1" d="M121.88,136.07a13.63,13.63,0,0,0-2.49-2,39.17,39.17,0,0,0-3.48-2,29.26,29.26,0,0,0-3,1.94,11.73,11.73,0,0,0-2.17,2,7.86,7.86,0,0,0-1.29,2.25,7.37,7.37,0,0,0-.43,2.54,5.69,5.69,0,0,0,1.89,4.62A8.58,8.58,0,0,0,116.5,147q3.67,0,5.49-1.63a5.74,5.74,0,0,0,1.82-4.5,6.66,6.66,0,0,0-1.93-4.85Z"/><path class="cls-1" d="M0,0V254.21H165.62V0ZM13.18,105.26a.48.48,0,0,1,.1-.3.71.71,0,0,1,.33-.21,3.07,3.07,0,0,1,.63-.13,8.21,8.21,0,0,1,1,0,8.16,8.16,0,0,1,1,0,3.07,3.07,0,0,1,.62.13.72.72,0,0,1,.33.21.48.48,0,0,1,.1.3v17.21h6.33a.43.43,0,0,1,.27.09.66.66,0,0,1,.19.3,2.36,2.36,0,0,1,.12.55,9.06,9.06,0,0,1,0,1.67,2.68,2.68,0,0,1-.12.56.72.72,0,0,1-.19.32.41.41,0,0,1-.27.1H14.39a1.23,1.23,0,0,1-.86-.32,1.37,1.37,0,0,1-.35-1Zm14.42,40.43a11.5,11.5,0,0,1-1.38,3.61,6.6,6.6,0,0,1-2.32,2.31,6.42,6.42,0,0,1-3.27.81,6.38,6.38,0,0,1-3.21-.77,6.12,6.12,0,0,1-2.21-2.2A10.76,10.76,0,0,1,13.92,146a24,24,0,0,1-.41-4.65,22,22,0,0,1,.45-4.66,11.08,11.08,0,0,1,1.38-3.57,6.72,6.72,0,0,1,2.32-2.29A6.42,6.42,0,0,1,21,130a6.32,6.32,0,0,1,3.17.76,6.18,6.18,0,0,1,2.21,2.18,10.66,10.66,0,0,1,1.3,3.45,22.61,22.61,0,0,1,.42,4.58A22.37,22.37,0,0,1,27.59,145.69ZM44,151.14a1.55,1.55,0,0,1-.07.51,1,1,0,0,1-.18.33.61.61,0,0,1-.25.18.74.74,0,0,1-.25.05h-.32a1.28,1.28,0,0,1-.47-.08,1.18,1.18,0,0,1-.42-.3,2.84,2.84,0,0,1-.4-.57q-.2-.36-.45-.91L35.26,136.7q-.44-1-.89-2.05t-.85-2.05h0q0,1.23,0,2.53V151.8a.45.45,0,0,1,0,.19.3.3,0,0,1-.13.13.91.91,0,0,1-.24.08,2.16,2.16,0,0,1-.76,0,.92.92,0,0,1-.25-.08A.29.29,0,0,1,32,152a.44.44,0,0,1,0-.19V131.34a1.12,1.12,0,0,1,.25-.84.72.72,0,0,1,.48-.23h.65a1.71,1.71,0,0,1,.52.07,1,1,0,0,1,.38.23,1.89,1.89,0,0,1,.33.46q.16.29.36.75l4.53,10.46q.43,1,.81,1.88l.75,1.77.72,1.71q.36.84.71,1.71h0q0-1.42,0-3V130.68a.44.44,0,0,1,0-.19.34.34,0,0,1,.13-.14.63.63,0,0,1,.24-.08,2.38,2.38,0,0,1,.38,0l.36,0a.64.64,0,0,1,.25.08.4.4,0,0,1,.14.14.39.39,0,0,1,0,.19Zm-.43-31.27a9.78,9.78,0,0,1-1.85,3.56,8,8,0,0,1-3,2.23,10.66,10.66,0,0,1-4.19.77,11.71,11.71,0,0,1-4.1-.65,7.08,7.08,0,0,1-2.92-2,8.69,8.69,0,0,1-1.75-3.41,18.12,18.12,0,0,1-.58-4.89,16.24,16.24,0,0,1,.62-4.67,9.72,9.72,0,0,1,1.85-3.53,8.1,8.1,0,0,1,3-2.23,10.61,10.61,0,0,1,4.21-.78,11.65,11.65,0,0,1,4,.64,7.07,7.07,0,0,1,2.92,2,8.81,8.81,0,0,1,1.77,3.38,17.24,17.24,0,0,1,.6,4.82A16.75,16.75,0,0,1,43.57,119.87Zm5.51,3.83a9.2,9.2,0,0,1-1.79-3.36,16,16,0,0,1-.62-4.69,15.71,15.71,0,0,1,.68-4.84,10.26,10.26,0,0,1,1.91-3.55,8,8,0,0,1,2.95-2.18,9.43,9.43,0,0,1,3.79-.74,8.64,8.64,0,0,1,1.62.15,9.47,9.47,0,0,1,1.44.39,7,7,0,0,1,1.19.55,3.61,3.61,0,0,1,.74.54,1.86,1.86,0,0,1,.29.37,1.43,1.43,0,0,1,.12.38,4.38,4.38,0,0,1,.07.54c0,.21,0,.47,0,.78s0,.61,0,.84a2.29,2.29,0,0,1-.11.56.78.78,0,0,1-.19.31.36.36,0,0,1-.25.1,1,1,0,0,1-.59-.29,9.67,9.67,0,0,0-.93-.64,7.39,7.39,0,0,0-1.35-.65,5.44,5.44,0,0,0-1.87-.29,4.34,4.34,0,0,0-2.14.52,4.67,4.67,0,0,0-1.6,1.49,7.19,7.19,0,0,0-1,2.34,14.43,14.43,0,0,0,0,6.36,6.45,6.45,0,0,0,1,2.27,4.25,4.25,0,0,0,1.63,1.33,5.12,5.12,0,0,0,2.15.44,5.82,5.82,0,0,0,1.88-.27,7.65,7.65,0,0,0,1.36-.6q.57-.33.93-.6A1.13,1.13,0,0,1,61,121a.42.42,0,0,1,.25.07.5.5,0,0,1,.16.26,2.78,2.78,0,0,1,.09.55q0,.36,0,.95,0,.41,0,.7a3.66,3.66,0,0,1-.07.5,1.49,1.49,0,0,1-.12.36,1.76,1.76,0,0,1-.25.34,3.18,3.18,0,0,1-.66.49,7.54,7.54,0,0,1-1.2.57,9.88,9.88,0,0,1-1.62.45,10,10,0,0,1-2,.18,9.81,9.81,0,0,1-3.73-.68A7.36,7.36,0,0,1,49.07,123.7Zm16,7.91a1,1,0,0,1-.08.28.45.45,0,0,1-.13.17.28.28,0,0,1-.17.06h-5V151.8a.44.44,0,0,1,0,.19.29.29,0,0,1-.13.13.91.91,0,0,1-.25.08,2.12,2.12,0,0,1-.75,0,.91.91,0,0,1-.25-.08.29.29,0,0,1-.13-.13.44.44,0,0,1,0-.19V132.12h-5a.27.27,0,0,1-.18-.06.48.48,0,0,1-.12-.17,1,1,0,0,1-.08-.28,2.53,2.53,0,0,1,0-.39,2.83,2.83,0,0,1,0-.41,1.13,1.13,0,0,1,.08-.3.48.48,0,0,1,.12-.18.27.27,0,0,1,.18-.06H64.7a.27.27,0,0,1,.17.06.46.46,0,0,1,.13.18,1.19,1.19,0,0,1,.08.3,3,3,0,0,1,0,.41A2.65,2.65,0,0,1,65.08,131.61ZM79.34,151.8a.45.45,0,0,1,0,.19.29.29,0,0,1-.13.13.91.91,0,0,1-.25.08,1.81,1.81,0,0,1-.38,0,1.79,1.79,0,0,1-.38,0,.93.93,0,0,1-.24-.08.29.29,0,0,1-.13-.13.44.44,0,0,1,0-.19V141.61H69.36V151.8a.45.45,0,0,1,0,.19.3.3,0,0,1-.13.13.91.91,0,0,1-.24.08,2.16,2.16,0,0,1-.76,0,.92.92,0,0,1-.25-.08.29.29,0,0,1-.13-.13.44.44,0,0,1,0-.19V130.62a.44.44,0,0,1,0-.19.29.29,0,0,1,.13-.13.94.94,0,0,1,.25-.09,2.16,2.16,0,0,1,.76,0,.94.94,0,0,1,.24.09.3.3,0,0,1,.13.13.45.45,0,0,1,0,.19v9.16h8.39v-9.16a.44.44,0,0,1,0-.19.29.29,0,0,1,.13-.13,1,1,0,0,1,.24-.09,1.84,1.84,0,0,1,.38,0,1.87,1.87,0,0,1,.38,0,.94.94,0,0,1,.25.09.29.29,0,0,1,.13.13.45.45,0,0,1,0,.19Zm1.74-25.9a1,1,0,0,1-.61.22q-.44,0-1.2,0t-1.24,0a2.9,2.9,0,0,1-.68-.1.61.61,0,0,1-.33-.21,1.18,1.18,0,0,1-.16-.35l-1.35-4.3H68l-1.27,4.18a1.38,1.38,0,0,1-.16.39.67.67,0,0,1-.33.25,2.26,2.26,0,0,1-.64.12q-.41,0-1.08,0a9.76,9.76,0,0,1-1.12,0,.83.83,0,0,1-.56-.24.67.67,0,0,1-.11-.54,5.69,5.69,0,0,1,.23-.93l6.21-19a1.72,1.72,0,0,1,.22-.45.77.77,0,0,1,.4-.26,3,3,0,0,1,.75-.12q.48,0,1.27,0t1.46,0a3.72,3.72,0,0,1,.85.12.8.8,0,0,1,.44.27,1.67,1.67,0,0,1,.23.5l6.22,19a6,6,0,0,1,.23.94A.59.59,0,0,1,81.08,125.9Zm12.15,25.71a1,1,0,0,1-.08.29.49.49,0,0,1-.14.18.27.27,0,0,1-.17.06H85a.73.73,0,0,1-.48-.23,1.12,1.12,0,0,1-.25-.84V131.34a1.12,1.12,0,0,1,.25-.84.72.72,0,0,1,.48-.23h7.75a.27.27,0,0,1,.17.06.44.44,0,0,1,.13.18,1.19,1.19,0,0,1,.08.3,2.83,2.83,0,0,1,0,.41,2.53,2.53,0,0,1,0,.39,1,1,0,0,1-.08.28.44.44,0,0,1-.13.17.27.27,0,0,1-.17.06h-6.9v7.69h5.95a.29.29,0,0,1,.18.06.45.45,0,0,1,.13.17,1,1,0,0,1,.08.29,3,3,0,0,1,0,.41,2.47,2.47,0,0,1,0,.38.9.9,0,0,1-.08.26.39.39,0,0,1-.13.15.33.33,0,0,1-.18.05H85.83v8.72h7a.28.28,0,0,1,.17.06.51.51,0,0,1,.14.17.92.92,0,0,1,.08.29,3,3,0,0,1,0,.41A2.64,2.64,0,0,1,93.23,151.61Zm1.58-26.54a2.68,2.68,0,0,1-.12.56.72.72,0,0,1-.19.32.41.41,0,0,1-.27.1H85a1.23,1.23,0,0,1-.86-.32,1.37,1.37,0,0,1-.35-1V105.26a.48.48,0,0,1,.1-.3.71.71,0,0,1,.33-.21,3.07,3.07,0,0,1,.63-.13,9.9,9.9,0,0,1,2,0,3.07,3.07,0,0,1,.62.13.72.72,0,0,1,.33.21.48.48,0,0,1,.1.3v17.21h6.33a.43.43,0,0,1,.27.09.66.66,0,0,1,.19.3,2.36,2.36,0,0,1,.12.55,9.06,9.06,0,0,1,0,1.67Zm37.6,21.24a11.79,11.79,0,0,1-3.37,4.52,15.13,15.13,0,0,1-5.53,2.79,31,31,0,0,1-14.84.1,14.54,14.54,0,0,1-5.21-2.5,10.31,10.31,0,0,1-3.15-4.07,13.9,13.9,0,0,1-1-5.57,12.78,12.78,0,0,1,.62-4,11.93,11.93,0,0,1,1.84-3.49,16.41,16.41,0,0,1,3-3,30.34,30.34,0,0,1,4.18-2.7,24.41,24.41,0,0,1-3.45-2.35,14.91,14.91,0,0,1-2.62-2.75,11.28,11.28,0,0,1-1.65-3.28,12.85,12.85,0,0,1-.56-3.88,14.1,14.1,0,0,1,1-5.49,11.61,11.61,0,0,1,3.07-4.27,14,14,0,0,1,5.11-2.77,23.67,23.67,0,0,1,7.12-1,23.31,23.31,0,0,1,6.88.89,12.64,12.64,0,0,1,4.7,2.52,10,10,0,0,1,2.72,3.9,13.79,13.79,0,0,1,.88,5,11.07,11.07,0,0,1-.58,3.55,13.56,13.56,0,0,1-1.63,3.28,15.92,15.92,0,0,1-2.59,2.93,20.74,20.74,0,0,1-3.48,2.5,30,30,0,0,1,4.08,2.64,16.74,16.74,0,0,1,3,3,12.66,12.66,0,0,1,1.89,3.43,11.63,11.63,0,0,1,.66,4A15.39,15.39,0,0,1,132.41,146.31Zm14,1.85a5.44,5.44,0,0,1-1.35,2,5.92,5.92,0,0,1-2.1,1.24,8.14,8.14,0,0,1-2.7.43,8.78,8.78,0,0,1-1.75-.17,9.33,9.33,0,0,1-1.5-.43,6.58,6.58,0,0,1-1.13-.55,3.74,3.74,0,0,1-.68-.52,1.32,1.32,0,0,1-.32-.56,3.32,3.32,0,0,1-.1-.9,3,3,0,0,1,0-.52,2.21,2.21,0,0,1,.1-.38.54.54,0,0,1,.16-.24.34.34,0,0,1,.22-.08,1.25,1.25,0,0,1,.63.32,11.09,11.09,0,0,0,1,.69,8.8,8.8,0,0,0,1.48.69,6.29,6.29,0,0,0,3.64.09,3.73,3.73,0,0,0,1.3-.68,3,3,0,0,0,.86-1.16,4.16,4.16,0,0,0,.31-1.66,3,3,0,0,0-.39-1.6,4,4,0,0,0-1-1.14,7.69,7.69,0,0,0-1.46-.86l-1.68-.77q-.86-.39-1.68-.87a6.45,6.45,0,0,1-1.46-1.15,5.28,5.28,0,0,1-1-1.62,5.9,5.9,0,0,1-.39-2.28,6.33,6.33,0,0,1,.35-2.08,5.26,5.26,0,0,1,1.09-1.84,5.41,5.41,0,0,1,1.89-1.31,6.89,6.89,0,0,1,2.73-.5,7.19,7.19,0,0,1,1.33.12,7.3,7.3,0,0,1,1.2.33,5.71,5.71,0,0,1,.94.44,4.37,4.37,0,0,1,.6.42,1.29,1.29,0,0,1,.28.3.91.91,0,0,1,.1.26,3,3,0,0,1,0,.33c0,.13,0,.28,0,.46a3.51,3.51,0,0,1,0,.48,1.72,1.72,0,0,1-.09.37.59.59,0,0,1-.15.24.3.3,0,0,1-.21.08.94.94,0,0,1-.47-.25,7,7,0,0,0-.83-.54,7.42,7.42,0,0,0-1.22-.54,5,5,0,0,0-1.64-.25,4.87,4.87,0,0,0-1.63.25,3,3,0,0,0-1.15.7,2.9,2.9,0,0,0-.68,1.06,3.79,3.79,0,0,0-.23,1.33,3.25,3.25,0,0,0,.39,1.67,4,4,0,0,0,1,1.17,7.87,7.87,0,0,0,1.48.88l1.68.77q.86.38,1.68.84a6.62,6.62,0,0,1,1.48,1.12,5,5,0,0,1,1,1.57,5.51,5.51,0,0,1,.39,2.2A6.89,6.89,0,0,1,146.44,148.16Z"/><path class="cls-1" d="M25.17,134.54a5.14,5.14,0,0,0-1.71-2,4.61,4.61,0,0,0-2.64-.72,4.46,4.46,0,0,0-2.63.75,5.61,5.61,0,0,0-1.74,2,9.9,9.9,0,0,0-1,3,20.89,20.89,0,0,0-.29,3.56,24.22,24.22,0,0,0,.27,3.71,10,10,0,0,0,.9,3,5.08,5.08,0,0,0,1.7,2,4.66,4.66,0,0,0,2.66.72,4.47,4.47,0,0,0,2.66-.77,5.63,5.63,0,0,0,1.74-2.06,10.26,10.26,0,0,0,.95-3,21.46,21.46,0,0,0,.29-3.57,22.55,22.55,0,0,0-.28-3.64A10.08,10.08,0,0,0,25.17,134.54Z"/></g></g></svg>