<?xml version="1.0" encoding="UTF-8" standalone="no"?>
<svg
   xmlns:dc="http://purl.org/dc/elements/1.1/"
   xmlns:cc="http://creativecommons.org/ns#"
   xmlns:rdf="http://www.w3.org/1999/02/22-rdf-syntax-ns#"
   xmlns:svg="http://www.w3.org/2000/svg"
   xmlns="http://www.w3.org/2000/svg"
   xmlns:sodipodi="http://sodipodi.sourceforge.net/DTD/sodipodi-0.dtd"
   xmlns:inkscape="http://www.inkscape.org/namespaces/inkscape"
   width="25.361547mm"
   height="25.361547mm"
   viewBox="0 0 25.361547 25.361547"
   version="1.1"
   id="svg8"
   inkscape:version="0.92.1 r15371"
   sodipodi:docname="TWClogo.svg">
  <defs
     id="defs2">
    <clipPath
       id="clipPath4501"
       clipPathUnits="userSpaceOnUse">
      <path
         inkscape:connector-curvature="0"
         id="path4499"
         d="m 95.052,196.087 h 96.35 v 76.147 h -96.35 z" />
    </clipPath>
    <clipPath
       id="clipPath4515"
       clipPathUnits="userSpaceOnUse">
      <path
         inkscape:connector-curvature="0"
         id="path4513"
         d="M 0,288 H 288 V 0 H 0 Z" />
    </clipPath>
    <clipPath
       id="clipPath4533"
       clipPathUnits="userSpaceOnUse">
      <path
         inkscape:connector-curvature="0"
         id="path4531"
         d="M 0,288 H 288 V 0 H 0 Z" />
    </clipPath>
  </defs>
  <sodipodi:namedview
     id="base"
     pagecolor="#ffffff"
     bordercolor="#666666"
     borderopacity="1.0"
     inkscape:pageopacity="0.0"
     inkscape:pageshadow="2"
     inkscape:zoom="1.979899"
     inkscape:cx="-52.041656"
     inkscape:cy="113.06652"
     inkscape:document-units="mm"
     inkscape:current-layer="g4493"
     showgrid="false"
     inkscape:window-width="1920"
     inkscape:window-height="1017"
     inkscape:window-x="-8"
     inkscape:window-y="-8"
     inkscape:window-maximized="1"
     fit-margin-top="0"
     fit-margin-left="0"
     fit-margin-right="0"
     fit-margin-bottom="0" />
  <metadata
     id="metadata5">
    <rdf:RDF>
      <cc:Work
         rdf:about="">
        <dc:format>image/svg+xml</dc:format>
        <dc:type
           rdf:resource="http://purl.org/dc/dcmitype/StillImage" />
        <dc:title></dc:title>
      </cc:Work>
    </rdf:RDF>
  </metadata>
  <g
     inkscape:label="Layer 1"
     inkscape:groupmode="layer"
     id="layer1"
     transform="translate(-88.919882,-146.3845)">
    <g
       transform="matrix(0.35277777,0,0,-0.35277777,52.408088,185.67301)"
       inkscape:label="The_weather_channel"
       id="g4493">
      <path
         inkscape:connector-curvature="0"
         id="path4521"
         style="fill:#000000;fill-opacity:0.50196081;fill-rule:nonzero;stroke:none"
         d="m 175.389,39.478 h -71.891 v 71.891 h 71.891 z" />
      <g
         transform="translate(111.5156,90.0811)"
         id="g4523">
        <path
           inkscape:connector-curvature="0"
           id="path4525"
           style="fill:#ffffff;fill-opacity:1;fill-rule:nonzero;stroke:none"
           d="M 0,0 H -3.041 V 2.34 H 5.614 V 0 H 2.54 V -9.979 H 0 Z" />
      </g>
      <g
         id="g4527">
        <g
           clip-path="url(#clipPath4533)"
           id="g4529">
          <g
             transform="translate(118.2002,93.0801)"
             id="g4535">
            <path
               inkscape:connector-curvature="0"
               id="path4537"
               style="fill:#ffffff;fill-opacity:1;fill-rule:nonzero;stroke:none"
               d="m 0,0 h 2.54 v -5.118 h 0.033 c 0.268,0.402 0.602,0.713 1.002,0.932 0.385,0.219 0.853,0.347 1.321,0.347 1.621,0 2.857,-1.224 2.857,-3.931 v -5.209 h -2.54 v 4.917 c 0,1.17 -0.367,1.975 -1.32,1.975 -0.668,0 -1.086,-0.475 -1.27,-0.987 C 2.557,-7.237 2.54,-7.477 2.54,-7.679 v -5.3 H 0 Z" />
          </g>
          <g
             transform="translate(132.9375,85.6035)"
             id="g4539">
            <path
               inkscape:connector-curvature="0"
               id="path4541"
               style="fill:#ffffff;fill-opacity:1;fill-rule:nonzero;stroke:none"
               d="M 0,0 C 0,0.659 -0.268,1.81 -1.42,1.81 -2.507,1.81 -2.94,0.731 -3.008,0 Z m -2.991,-1.901 c 0.084,-1.17 1.12,-1.717 2.305,-1.717 0.87,0 1.572,0.127 2.256,0.383 L 1.904,-5.118 C 1.069,-5.502 0.05,-5.685 -1.053,-5.685 c -2.773,0 -4.361,1.755 -4.361,4.571 0,2.266 1.304,4.77 4.127,4.77 2.641,0 3.642,-2.247 3.642,-4.46 0,-0.474 -0.049,-0.896 -0.083,-1.115 z" />
          </g>
          <g
             transform="translate(111.1484,63.1533)"
             id="g4543">
            <path
               inkscape:connector-curvature="0"
               id="path4545"
               style="fill:#ffffff;fill-opacity:1;fill-rule:nonzero;stroke:none"
               d="M 0,0 -2.674,12.348 H 0.05 L 0.902,7.273 C 1.152,5.789 1.387,4.195 1.57,2.931 h 0.034 c 0.184,1.356 0.451,2.84 0.735,4.38 l 0.952,5.037 H 5.998 L 6.9,7.145 C 7.151,5.697 7.335,4.378 7.502,3.005 h 0.033 c 0.167,1.373 0.418,2.822 0.652,4.306 l 0.919,5.037 h 2.589 L 8.788,0 H 6.031 L 5.079,5.313 C 4.862,6.559 4.679,7.714 4.545,9.124 H 4.511 C 4.311,7.731 4.127,6.559 3.859,5.313 L 2.79,0 Z" />
          </g>
          <g
             transform="translate(128.2598,68.6689)"
             id="g4547">
            <path
               inkscape:connector-curvature="0"
               id="path4549"
               style="fill:#ffffff;fill-opacity:1;fill-rule:nonzero;stroke:none"
               d="M 0,0 C 0,0.659 -0.267,1.813 -1.42,1.813 -2.506,1.813 -2.94,0.732 -3.007,0 Z m -2.99,-1.907 c 0.083,-1.171 1.119,-1.721 2.305,-1.721 0.87,0 1.571,0.127 2.256,0.384 l 0.334,-1.887 c -0.836,-0.385 -1.854,-0.568 -2.958,-0.568 -2.773,0 -4.36,1.76 -4.36,4.581 0,2.271 1.303,4.781 4.127,4.781 2.64,0 3.642,-2.253 3.642,-4.471 0,-0.474 -0.05,-0.898 -0.084,-1.117 z" />
          </g>
          <g
             transform="translate(136.4805,67.3867)"
             id="g4551">
            <path
               inkscape:connector-curvature="0"
               id="path4553"
               style="fill:#ffffff;fill-opacity:1;fill-rule:nonzero;stroke:none"
               d="m 0,0 c -1.336,0 -2.372,-0.35 -2.372,-1.412 0,-0.715 0.434,-1.063 1.002,-1.063 0.618,0 1.153,0.457 1.32,1.026 0.033,0.146 0.05,0.311 0.05,0.477 z m 2.456,-2.071 c 0,-0.843 0.034,-1.667 0.134,-2.162 H 0.301 L 0.15,-3.336 H 0.101 c -0.535,-0.715 -1.371,-1.099 -2.339,-1.099 -1.655,0 -2.641,1.319 -2.641,2.748 0,2.327 1.905,3.426 4.796,3.426 V 1.85 c 0,0.475 -0.234,1.153 -1.487,1.153 -0.835,0 -1.721,-0.311 -2.256,-0.659 l -0.468,1.777 c 0.568,0.349 1.688,0.806 3.175,0.806 2.723,0 3.575,-1.76 3.575,-3.866 z" />
          </g>
          <g
             transform="translate(143.6689,74.5498)"
             id="g4555">
            <path
               inkscape:connector-curvature="0"
               id="path4557"
               style="fill:#ffffff;fill-opacity:1;fill-rule:nonzero;stroke:none"
               d="M 0,0 V -2.438 H 1.821 V -4.489 H 0 V -7.75 c 0,-1.081 0.251,-1.576 1.003,-1.576 0.351,0 0.518,0.018 0.752,0.074 l 0.016,-2.108 c -0.317,-0.128 -0.936,-0.238 -1.637,-0.238 -0.819,0 -1.504,0.311 -1.922,0.77 -0.468,0.53 -0.701,1.391 -0.701,2.657 v 3.682 h -1.086 v 2.051 h 1.086 v 1.686 z" />
          </g>
          <g
             transform="translate(146.9619,76.1611)"
             id="g4559">
            <path
               inkscape:connector-curvature="0"
               id="path4561"
               style="fill:#ffffff;fill-opacity:1;fill-rule:nonzero;stroke:none"
               d="m 0,0 h 2.539 v -5.13 h 0.034 c 0.267,0.403 0.601,0.716 1.002,0.935 0.385,0.219 0.853,0.347 1.321,0.347 1.62,0 2.856,-1.226 2.856,-3.938 v -5.222 H 5.213 v 4.929 c 0,1.172 -0.368,1.978 -1.32,1.978 -0.668,0 -1.086,-0.475 -1.27,-0.988 C 2.556,-7.255 2.539,-7.492 2.539,-7.695 v -5.313 H 0 Z" />
          </g>
          <g
             transform="translate(161.6982,68.6689)"
             id="g4563">
            <path
               inkscape:connector-curvature="0"
               id="path4565"
               style="fill:#ffffff;fill-opacity:1;fill-rule:nonzero;stroke:none"
               d="M 0,0 C 0,0.659 -0.268,1.813 -1.42,1.813 -2.506,1.813 -2.94,0.732 -3.008,0 Z m -2.991,-1.907 c 0.084,-1.171 1.12,-1.721 2.306,-1.721 0.869,0 1.571,0.127 2.255,0.384 L 1.905,-5.131 C 1.069,-5.516 0.05,-5.699 -1.053,-5.699 c -2.773,0 -4.36,1.76 -4.36,4.581 0,2.271 1.303,4.781 4.127,4.781 2.64,0 3.641,-2.253 3.641,-4.471 0,-0.474 -0.049,-0.898 -0.083,-1.117 z" />
          </g>
          <g
             transform="translate(165.5918,69.1631)"
             id="g4567">
            <path
               inkscape:connector-curvature="0"
               id="path4569"
               style="fill:#ffffff;fill-opacity:1;fill-rule:nonzero;stroke:none"
               d="m 0,0 c 0,1.318 -0.017,2.181 -0.067,2.949 h 2.172 l 0.1,-1.668 H 2.272 C 2.689,2.602 3.676,3.15 4.478,3.15 4.712,3.15 4.828,3.132 5.013,3.097 V 0.476 C 4.795,0.513 4.595,0.549 4.311,0.549 3.375,0.549 2.74,0.019 2.573,-0.862 2.539,-1.045 2.522,-1.246 2.522,-1.484 V -6.01 h -2.539 z" />
          </g>
          <g
             transform="translate(117.5811,46.5967)"
             id="g4571">
            <path
               inkscape:connector-curvature="0"
               id="path4573"
               style="fill:#ffffff;fill-opacity:1;fill-rule:nonzero;stroke:none"
               d="m 0,0 c -0.451,-0.237 -1.521,-0.529 -2.874,-0.529 -3.893,0 -5.897,2.668 -5.897,6.195 0,4.203 2.74,6.524 6.148,6.524 1.319,0 2.322,-0.293 2.773,-0.548 L -0.385,9.448 c -0.501,0.239 -1.219,0.457 -2.138,0.457 -2.005,0 -3.576,-1.333 -3.576,-4.092 0,-2.468 1.337,-4.022 3.593,-4.022 0.785,0 1.62,0.164 2.139,0.402 z" />
          </g>
          <g
             transform="translate(119.1367,59.2432)"
             id="g4575">
            <path
               inkscape:connector-curvature="0"
               id="path4577"
               style="fill:#ffffff;fill-opacity:1;fill-rule:nonzero;stroke:none"
               d="m 0,0 h 2.54 v -5.117 h 0.033 c 0.268,0.402 0.602,0.714 1.002,0.932 0.385,0.22 0.853,0.347 1.321,0.347 1.621,0 2.857,-1.224 2.857,-3.93 v -5.208 h -2.54 v 4.917 c 0,1.169 -0.367,1.973 -1.32,1.973 -0.668,0 -1.086,-0.475 -1.27,-0.986 C 2.557,-7.236 2.54,-7.474 2.54,-7.676 v -5.3 H 0 Z" />
          </g>
          <g
             transform="translate(133.2725,50.4902)"
             id="g4579">
            <path
               inkscape:connector-curvature="0"
               id="path4581"
               style="fill:#ffffff;fill-opacity:1;fill-rule:nonzero;stroke:none"
               d="m 0,0 c -1.337,0 -2.373,-0.349 -2.373,-1.407 0,-0.714 0.435,-1.061 1.003,-1.061 0.618,0 1.152,0.456 1.32,1.024 0.033,0.146 0.05,0.31 0.05,0.475 z m 2.456,-2.065 c 0,-0.841 0.033,-1.664 0.134,-2.158 H 0.301 L 0.15,-3.326 H 0.101 c -0.536,-0.714 -1.371,-1.097 -2.34,-1.097 -1.655,0 -2.64,1.315 -2.64,2.74 0,2.322 1.904,3.418 4.795,3.418 v 0.111 c 0,0.474 -0.233,1.15 -1.486,1.15 -0.836,0 -1.722,-0.309 -2.256,-0.657 l -0.468,1.772 c 0.567,0.348 1.688,0.804 3.175,0.804 2.723,0 3.575,-1.755 3.575,-3.856 z" />
          </g>
          <g
             transform="translate(137.75,52.3535)"
             id="g4583">
            <path
               inkscape:connector-curvature="0"
               id="path4585"
               style="fill:#ffffff;fill-opacity:1;fill-rule:nonzero;stroke:none"
               d="M 0,0 C 0,1.114 -0.033,2.047 -0.066,2.852 H 2.139 L 2.256,1.608 h 0.051 c 0.334,0.585 1.152,1.444 2.522,1.444 1.671,0 2.924,-1.224 2.924,-3.857 V -6.086 H 5.214 v 4.953 c 0,1.152 -0.368,1.937 -1.287,1.937 -0.701,0 -1.119,-0.53 -1.303,-1.041 C 2.557,-0.42 2.54,-0.676 2.54,-0.932 V -6.086 H 0 Z" />
          </g>
          <g
             transform="translate(147.543,52.3535)"
             id="g4587">
            <path
               inkscape:connector-curvature="0"
               id="path4589"
               style="fill:#ffffff;fill-opacity:1;fill-rule:nonzero;stroke:none"
               d="M 0,0 C 0,1.114 -0.034,2.047 -0.067,2.852 H 2.139 L 2.255,1.608 h 0.051 c 0.334,0.585 1.152,1.444 2.522,1.444 1.671,0 2.924,-1.224 2.924,-3.857 V -6.086 H 5.213 v 4.953 c 0,1.152 -0.368,1.937 -1.287,1.937 -0.701,0 -1.119,-0.53 -1.303,-1.041 C 2.556,-0.42 2.539,-0.676 2.539,-0.932 V -6.086 H 0 Z" />
          </g>
          <g
             transform="translate(162.2793,51.7695)"
             id="g4591">
            <path
               inkscape:connector-curvature="0"
               id="path4593"
               style="fill:#ffffff;fill-opacity:1;fill-rule:nonzero;stroke:none"
               d="M 0,0 C 0,0.657 -0.268,1.81 -1.42,1.81 -2.506,1.81 -2.94,0.73 -3.008,0 Z m -2.991,-1.901 c 0.084,-1.17 1.12,-1.718 2.306,-1.718 0.869,0 1.571,0.128 2.255,0.384 L 1.905,-5.117 C 1.069,-5.502 0.05,-5.685 -1.053,-5.685 c -2.773,0 -4.36,1.755 -4.36,4.569 0,2.267 1.303,4.771 4.127,4.771 2.64,0 3.641,-2.248 3.641,-4.46 0,-0.474 -0.049,-0.894 -0.083,-1.115 z" />
          </g>
          <path
             inkscape:connector-curvature="0"
             id="path4595"
             style="fill:#ffffff;fill-opacity:1;fill-rule:nonzero;stroke:none"
             d="m 166.157,59.243 h 2.539 V 46.267 h -2.539 z" />
          <g
             transform="translate(182.4668,106.6318)"
             id="g4597" />
          <g
             transform="translate(178.8262,105.8652)"
             id="g4601" />
        </g>
      </g>
    </g>
  </g>
</svg>
