<svg xmlns="http://www.w3.org/2000/svg" xmlns:xlink="http://www.w3.org/1999/xlink" viewBox="0 0 71.89 71.89"><defs><style>.cls-1{fill:none;}.cls-2{fill:#0d77af;}.cls-3{fill:#fff;}.cls-4{clip-path:url(#clip-path);}</style><clipPath id="clip-path" transform="translate(-103.5 -176.63)"><rect class="cls-1" width="288" height="288"/></clipPath></defs><title>TWClogoColor</title><g id="Layer_2" data-name="Layer 2"><g id="svg8"><g id="layer1"><rect class="cls-2" width="71.89" height="71.89"/><g id="g4493"><g id="g4523"><path id="path4525" class="cls-3" d="M111.52,197.92h-3v-2.34h8.65v2.34h-3.07v10h-2.54Z" transform="translate(-103.5 -176.63)"/></g><g id="g4527"><g class="cls-4"><g id="g4529"><g id="g4535"><path id="path4537" class="cls-3" d="M118.2,194.92h2.54V200h0a2.83,2.83,0,0,1,1-.93,2.71,2.71,0,0,1,1.32-.35c1.62,0,2.86,1.22,2.86,3.93v5.21h-2.54V203c0-1.17-.37-2-1.32-2a1.36,1.36,0,0,0-1.27,1,1.77,1.77,0,0,0-.08.6v5.3H118.2Z" transform="translate(-103.5 -176.63)"/></g><g id="g4539"><path id="path4541" class="cls-3" d="M132.94,202.4c0-.66-.27-1.81-1.42-1.81s-1.52,1.08-1.59,1.81Zm-3,1.9c.08,1.17,1.12,1.72,2.3,1.72a6.2,6.2,0,0,0,2.26-.38l.33,1.88a7.13,7.13,0,0,1-3,.57c-2.77,0-4.36-1.76-4.36-4.57,0-2.27,1.3-4.77,4.13-4.77,2.64,0,3.64,2.25,3.64,4.46a7.67,7.67,0,0,1-.08,1.11Z" transform="translate(-103.5 -176.63)"/></g><g id="g4543"><path id="path4545" class="cls-3" d="M111.15,224.85l-2.67-12.35h2.72l.85,5.07c.25,1.48.48,3.08.67,4.34h0c.18-1.36.45-2.84.74-4.38l1-5h2.71l.9,5.2c.25,1.45.44,2.77.6,4.14h0c.17-1.37.42-2.82.65-4.31l.92-5h2.59l-2.91,12.35h-2.76l-1-5.31c-.22-1.25-.4-2.4-.53-3.81h0c-.2,1.39-.38,2.56-.65,3.81l-1.07,5.31Z" transform="translate(-103.5 -176.63)"/></g><g id="g4547"><path id="path4549" class="cls-3" d="M128.26,219.33c0-.66-.27-1.81-1.42-1.81s-1.52,1.08-1.59,1.81Zm-3,1.91c.08,1.17,1.12,1.72,2.31,1.72a6.18,6.18,0,0,0,2.26-.38l.33,1.89a7.12,7.12,0,0,1-3,.57c-2.77,0-4.36-1.76-4.36-4.58,0-2.27,1.3-4.78,4.13-4.78,2.64,0,3.64,2.25,3.64,4.47a7.67,7.67,0,0,1-.08,1.12Z" transform="translate(-103.5 -176.63)"/></g><g id="g4551"><path id="path4553" class="cls-3" d="M136.48,220.61c-1.34,0-2.37.35-2.37,1.41a1,1,0,0,0,1,1.06,1.42,1.42,0,0,0,1.32-1,2.2,2.2,0,0,0,0-.48Zm2.46,2.07a12.73,12.73,0,0,0,.13,2.16h-2.29l-.15-.9h0a2.83,2.83,0,0,1-2.34,1.1,2.63,2.63,0,0,1-2.64-2.75c0-2.33,1.9-3.43,4.8-3.43v-.11c0-.47-.23-1.15-1.49-1.15a4.47,4.47,0,0,0-2.26.66l-.47-1.78a6.24,6.24,0,0,1,3.17-.81c2.72,0,3.58,1.76,3.58,3.87Z" transform="translate(-103.5 -176.63)"/></g><g id="g4555"><path id="path4557" class="cls-3" d="M143.67,213.45v2.44h1.82v2.05h-1.82v3.26c0,1.08.25,1.58,1,1.58a2.81,2.81,0,0,0,.75-.07l0,2.11a4.92,4.92,0,0,1-1.64.24,2.58,2.58,0,0,1-1.92-.77,4,4,0,0,1-.7-2.66v-3.68h-1.09v-2.05h1.09V214.2Z" transform="translate(-103.5 -176.63)"/></g><g id="g4559"><path id="path4561" class="cls-3" d="M147,211.84h2.54V217h0a2.81,2.81,0,0,1,1-.93,2.71,2.71,0,0,1,1.32-.35c1.62,0,2.86,1.23,2.86,3.94v5.22h-2.54v-4.93c0-1.17-.37-2-1.32-2a1.36,1.36,0,0,0-1.27,1,1.76,1.76,0,0,0-.08.61v5.31H147Z" transform="translate(-103.5 -176.63)"/></g><g id="g4563"><path id="path4565" class="cls-3" d="M161.7,219.33c0-.66-.27-1.81-1.42-1.81s-1.52,1.08-1.59,1.81Zm-3,1.91c.08,1.17,1.12,1.72,2.31,1.72a6.17,6.17,0,0,0,2.26-.38l.33,1.89a7.12,7.12,0,0,1-3,.57c-2.77,0-4.36-1.76-4.36-4.58,0-2.27,1.3-4.78,4.13-4.78,2.64,0,3.64,2.25,3.64,4.47a7.71,7.71,0,0,1-.08,1.12Z" transform="translate(-103.5 -176.63)"/></g><g id="g4567"><path id="path4569" class="cls-3" d="M165.59,218.84c0-1.32,0-2.18-.07-2.95h2.17l.1,1.67h.07a2.29,2.29,0,0,1,2.74-1.82v2.62a3.8,3.8,0,0,0-.7-.07,1.65,1.65,0,0,0-1.74,1.41,3.38,3.38,0,0,0-.05.62v4.53h-2.54Z" transform="translate(-103.5 -176.63)"/></g><g id="g4571"><path id="path4573" class="cls-3" d="M117.58,241.4a6.93,6.93,0,0,1-2.87.53c-3.89,0-5.9-2.67-5.9-6.2,0-4.2,2.74-6.52,6.15-6.52a6.16,6.16,0,0,1,2.77.55L117.2,232a5,5,0,0,0-2.14-.46c-2,0-3.58,1.33-3.58,4.09,0,2.47,1.34,4,3.59,4a5.6,5.6,0,0,0,2.14-.4Z" transform="translate(-103.5 -176.63)"/></g><g id="g4575"><path id="path4577" class="cls-3" d="M119.14,228.76h2.54v5.12h0a2.82,2.82,0,0,1,1-.93,2.7,2.7,0,0,1,1.32-.35c1.62,0,2.86,1.22,2.86,3.93v5.21h-2.54v-4.92c0-1.17-.37-2-1.32-2a1.36,1.36,0,0,0-1.27,1,1.77,1.77,0,0,0-.08.6v5.3h-2.54Z" transform="translate(-103.5 -176.63)"/></g><g id="g4579"><path id="path4581" class="cls-3" d="M133.27,237.51c-1.34,0-2.37.35-2.37,1.41a1,1,0,0,0,1,1.06,1.42,1.42,0,0,0,1.32-1,2.19,2.19,0,0,0,0-.48Zm2.46,2.06a12.59,12.59,0,0,0,.13,2.16h-2.29l-.15-.9h0a2.84,2.84,0,0,1-2.34,1.1,2.62,2.62,0,0,1-2.64-2.74c0-2.32,1.9-3.42,4.8-3.42v-.11c0-.47-.23-1.15-1.49-1.15a4.46,4.46,0,0,0-2.26.66L129,233.4a6.25,6.25,0,0,1,3.17-.8c2.72,0,3.58,1.76,3.58,3.86Z" transform="translate(-103.5 -176.63)"/></g><g id="g4583"><path id="path4585" class="cls-3" d="M137.75,235.65c0-1.11,0-2-.07-2.85h2.2L140,234h.05a2.89,2.89,0,0,1,2.52-1.44c1.67,0,2.92,1.22,2.92,3.86v5.28H143v-5c0-1.15-.37-1.94-1.29-1.94a1.42,1.42,0,0,0-1.3,1,2.17,2.17,0,0,0-.08.7v5.15h-2.54Z" transform="translate(-103.5 -176.63)"/></g><g id="g4587"><path id="path4589" class="cls-3" d="M147.54,235.65c0-1.11,0-2-.07-2.85h2.21l.12,1.24h.05a2.89,2.89,0,0,1,2.52-1.44c1.67,0,2.92,1.22,2.92,3.86v5.28h-2.54v-5c0-1.15-.37-1.94-1.29-1.94a1.42,1.42,0,0,0-1.3,1,2.17,2.17,0,0,0-.08.7v5.15h-2.54Z" transform="translate(-103.5 -176.63)"/></g><g id="g4591"><path id="path4593" class="cls-3" d="M162.28,236.23c0-.66-.27-1.81-1.42-1.81s-1.52,1.08-1.59,1.81Zm-3,1.9c.08,1.17,1.12,1.72,2.31,1.72a6.19,6.19,0,0,0,2.26-.38l.33,1.88a7.12,7.12,0,0,1-3,.57c-2.77,0-4.36-1.76-4.36-4.57,0-2.27,1.3-4.77,4.13-4.77,2.64,0,3.64,2.25,3.64,4.46a7.7,7.7,0,0,1-.08,1.11Z" transform="translate(-103.5 -176.63)"/></g><path id="path4595" class="cls-3" d="M166.16,228.76h2.54v13h-2.54Z" transform="translate(-103.5 -176.63)"/></g></g></g></g></g></g></g></svg>